<mxfile host="app.diagrams.net" agent="Mozilla/5.0 (Windows NT 10.0; Win64; x64) AppleWebKit/537.36 (KHTML, like Gecko) Chrome/127.0.0.0 Safari/537.36 OPR/113.0.0.0 (Edition Yx 03)" version="24.7.17">
  <diagram name="Страница — 1" id="EZWOmMoUqqFRxTbdMjVS">
    <mxGraphModel dx="986" dy="528" grid="1" gridSize="10" guides="1" tooltips="1" connect="1" arrows="1" fold="1" page="1" pageScale="1" pageWidth="827" pageHeight="1169" math="0" shadow="0">
      <root>
        <mxCell id="0" />
        <mxCell id="1" parent="0" />
        <mxCell id="5bv3CfJNdA3xiE76aTlB-7" style="edgeStyle=orthogonalEdgeStyle;rounded=0;orthogonalLoop=1;jettySize=auto;html=1;" edge="1" parent="1" source="5bv3CfJNdA3xiE76aTlB-1">
          <mxGeometry relative="1" as="geometry">
            <mxPoint x="490.0000000000002" y="100" as="targetPoint" />
          </mxGeometry>
        </mxCell>
        <mxCell id="5bv3CfJNdA3xiE76aTlB-1" value="сайт" style="whiteSpace=wrap;html=1;aspect=fixed;" vertex="1" parent="1">
          <mxGeometry x="384" y="20" width="60" height="60" as="geometry" />
        </mxCell>
        <mxCell id="5bv3CfJNdA3xiE76aTlB-8" value="" style="edgeStyle=orthogonalEdgeStyle;rounded=0;orthogonalLoop=1;jettySize=auto;html=1;" edge="1" parent="1" source="5bv3CfJNdA3xiE76aTlB-3" target="5bv3CfJNdA3xiE76aTlB-5">
          <mxGeometry relative="1" as="geometry">
            <Array as="points">
              <mxPoint x="480" y="180" />
              <mxPoint x="480" y="180" />
            </Array>
          </mxGeometry>
        </mxCell>
        <mxCell id="5bv3CfJNdA3xiE76aTlB-3" value="интерфейс" style="rounded=1;whiteSpace=wrap;html=1;" vertex="1" parent="1">
          <mxGeometry x="414" y="100" width="120" height="60" as="geometry" />
        </mxCell>
        <mxCell id="5bv3CfJNdA3xiE76aTlB-39" style="edgeStyle=orthogonalEdgeStyle;rounded=0;orthogonalLoop=1;jettySize=auto;html=1;exitX=0.25;exitY=1;exitDx=0;exitDy=0;entryX=0.5;entryY=0;entryDx=0;entryDy=0;" edge="1" parent="1" source="5bv3CfJNdA3xiE76aTlB-4" target="5bv3CfJNdA3xiE76aTlB-37">
          <mxGeometry relative="1" as="geometry">
            <Array as="points">
              <mxPoint x="500" y="570" />
              <mxPoint x="500" y="605" />
              <mxPoint x="460" y="605" />
            </Array>
          </mxGeometry>
        </mxCell>
        <mxCell id="5bv3CfJNdA3xiE76aTlB-40" style="edgeStyle=orthogonalEdgeStyle;rounded=0;orthogonalLoop=1;jettySize=auto;html=1;exitX=0.75;exitY=1;exitDx=0;exitDy=0;" edge="1" parent="1" source="5bv3CfJNdA3xiE76aTlB-4" target="5bv3CfJNdA3xiE76aTlB-38">
          <mxGeometry relative="1" as="geometry">
            <Array as="points">
              <mxPoint x="510" y="570" />
              <mxPoint x="510" y="605" />
              <mxPoint x="550" y="605" />
            </Array>
          </mxGeometry>
        </mxCell>
        <mxCell id="5bv3CfJNdA3xiE76aTlB-4" value="листинг" style="rounded=0;whiteSpace=wrap;html=1;" vertex="1" parent="1">
          <mxGeometry x="444" y="510" width="120" height="60" as="geometry" />
        </mxCell>
        <mxCell id="5bv3CfJNdA3xiE76aTlB-13" value="" style="edgeStyle=orthogonalEdgeStyle;rounded=0;orthogonalLoop=1;jettySize=auto;html=1;" edge="1" parent="1" source="5bv3CfJNdA3xiE76aTlB-5" target="5bv3CfJNdA3xiE76aTlB-11">
          <mxGeometry relative="1" as="geometry">
            <Array as="points">
              <mxPoint x="504" y="320" />
              <mxPoint x="504" y="320" />
            </Array>
          </mxGeometry>
        </mxCell>
        <mxCell id="5bv3CfJNdA3xiE76aTlB-15" style="edgeStyle=orthogonalEdgeStyle;rounded=0;orthogonalLoop=1;jettySize=auto;html=1;exitX=1;exitY=0;exitDx=0;exitDy=0;entryX=0;entryY=0.5;entryDx=0;entryDy=0;" edge="1" parent="1" source="5bv3CfJNdA3xiE76aTlB-5" target="5bv3CfJNdA3xiE76aTlB-10">
          <mxGeometry relative="1" as="geometry" />
        </mxCell>
        <mxCell id="5bv3CfJNdA3xiE76aTlB-16" style="edgeStyle=orthogonalEdgeStyle;rounded=0;orthogonalLoop=1;jettySize=auto;html=1;exitX=1;exitY=0.25;exitDx=0;exitDy=0;entryX=0;entryY=0.5;entryDx=0;entryDy=0;" edge="1" parent="1" source="5bv3CfJNdA3xiE76aTlB-5" target="5bv3CfJNdA3xiE76aTlB-9">
          <mxGeometry relative="1" as="geometry" />
        </mxCell>
        <mxCell id="5bv3CfJNdA3xiE76aTlB-18" style="edgeStyle=orthogonalEdgeStyle;rounded=0;orthogonalLoop=1;jettySize=auto;html=1;exitX=1;exitY=0.5;exitDx=0;exitDy=0;entryX=0;entryY=0.5;entryDx=0;entryDy=0;" edge="1" parent="1" source="5bv3CfJNdA3xiE76aTlB-5" target="5bv3CfJNdA3xiE76aTlB-17">
          <mxGeometry relative="1" as="geometry" />
        </mxCell>
        <mxCell id="5bv3CfJNdA3xiE76aTlB-33" style="edgeStyle=orthogonalEdgeStyle;rounded=0;orthogonalLoop=1;jettySize=auto;html=1;exitX=1;exitY=0.75;exitDx=0;exitDy=0;entryX=0;entryY=0.5;entryDx=0;entryDy=0;" edge="1" parent="1" source="5bv3CfJNdA3xiE76aTlB-5" target="5bv3CfJNdA3xiE76aTlB-32">
          <mxGeometry relative="1" as="geometry" />
        </mxCell>
        <mxCell id="5bv3CfJNdA3xiE76aTlB-5" value="главная страница" style="rounded=0;whiteSpace=wrap;html=1;" vertex="1" parent="1">
          <mxGeometry x="420" y="250" width="120" height="60" as="geometry" />
        </mxCell>
        <mxCell id="5bv3CfJNdA3xiE76aTlB-9" value="регион" style="ellipse;whiteSpace=wrap;html=1;fillColor=#d5e8d4;strokeColor=#82b366;" vertex="1" parent="1">
          <mxGeometry x="615" y="170" width="60" height="60" as="geometry" />
        </mxCell>
        <mxCell id="5bv3CfJNdA3xiE76aTlB-10" value="лого" style="ellipse;whiteSpace=wrap;html=1;fillColor=#d5e8d4;strokeColor=#82b366;" vertex="1" parent="1">
          <mxGeometry x="615" y="100" width="60" height="60" as="geometry" />
        </mxCell>
        <mxCell id="5bv3CfJNdA3xiE76aTlB-14" value="" style="edgeStyle=orthogonalEdgeStyle;rounded=0;orthogonalLoop=1;jettySize=auto;html=1;" edge="1" parent="1" source="5bv3CfJNdA3xiE76aTlB-11" target="5bv3CfJNdA3xiE76aTlB-4">
          <mxGeometry relative="1" as="geometry" />
        </mxCell>
        <mxCell id="5bv3CfJNdA3xiE76aTlB-11" value="меню" style="ellipse;whiteSpace=wrap;html=1;" vertex="1" parent="1">
          <mxGeometry x="474" y="390" width="60" height="60" as="geometry" />
        </mxCell>
        <mxCell id="5bv3CfJNdA3xiE76aTlB-17" value="инфо. страницы" style="ellipse;whiteSpace=wrap;html=1;aspect=fixed;" vertex="1" parent="1">
          <mxGeometry x="610" y="247.5" width="65" height="65" as="geometry" />
        </mxCell>
        <mxCell id="5bv3CfJNdA3xiE76aTlB-43" style="edgeStyle=orthogonalEdgeStyle;rounded=0;orthogonalLoop=1;jettySize=auto;html=1;exitX=0;exitY=1;exitDx=0;exitDy=0;entryX=0.5;entryY=0;entryDx=0;entryDy=0;" edge="1" parent="1" source="5bv3CfJNdA3xiE76aTlB-27" target="5bv3CfJNdA3xiE76aTlB-31">
          <mxGeometry relative="1" as="geometry" />
        </mxCell>
        <mxCell id="5bv3CfJNdA3xiE76aTlB-44" style="edgeStyle=orthogonalEdgeStyle;rounded=0;orthogonalLoop=1;jettySize=auto;html=1;exitX=0.5;exitY=1;exitDx=0;exitDy=0;entryX=0.5;entryY=0;entryDx=0;entryDy=0;" edge="1" parent="1" source="5bv3CfJNdA3xiE76aTlB-27" target="5bv3CfJNdA3xiE76aTlB-30">
          <mxGeometry relative="1" as="geometry" />
        </mxCell>
        <mxCell id="5bv3CfJNdA3xiE76aTlB-45" style="edgeStyle=orthogonalEdgeStyle;rounded=0;orthogonalLoop=1;jettySize=auto;html=1;exitX=1;exitY=1;exitDx=0;exitDy=0;entryX=0.5;entryY=0;entryDx=0;entryDy=0;" edge="1" parent="1" source="5bv3CfJNdA3xiE76aTlB-27" target="5bv3CfJNdA3xiE76aTlB-29">
          <mxGeometry relative="1" as="geometry" />
        </mxCell>
        <mxCell id="5bv3CfJNdA3xiE76aTlB-27" value="кнопки&lt;br&gt;корзина&lt;br&gt;избранное&lt;br&gt;сравнения" style="ellipse;whiteSpace=wrap;html=1;" vertex="1" parent="1">
          <mxGeometry x="170" y="360" width="80" height="80" as="geometry" />
        </mxCell>
        <mxCell id="5bv3CfJNdA3xiE76aTlB-29" value="Сравнения" style="rounded=0;whiteSpace=wrap;html=1;" vertex="1" parent="1">
          <mxGeometry x="290" y="510" width="120" height="60" as="geometry" />
        </mxCell>
        <mxCell id="5bv3CfJNdA3xiE76aTlB-30" value="Избранное" style="rounded=0;whiteSpace=wrap;html=1;" vertex="1" parent="1">
          <mxGeometry x="150" y="510" width="120" height="60" as="geometry" />
        </mxCell>
        <mxCell id="5bv3CfJNdA3xiE76aTlB-31" value="Корзина" style="rounded=0;whiteSpace=wrap;html=1;" vertex="1" parent="1">
          <mxGeometry x="10" y="510" width="120" height="60" as="geometry" />
        </mxCell>
        <mxCell id="5bv3CfJNdA3xiE76aTlB-32" value="баннеры" style="ellipse;whiteSpace=wrap;html=1;" vertex="1" parent="1">
          <mxGeometry x="615" y="330" width="60" height="60" as="geometry" />
        </mxCell>
        <mxCell id="5bv3CfJNdA3xiE76aTlB-34" value="поиск" style="ellipse;whiteSpace=wrap;html=1;" vertex="1" parent="1">
          <mxGeometry x="180" y="170" width="60" height="60" as="geometry" />
        </mxCell>
        <mxCell id="5bv3CfJNdA3xiE76aTlB-35" value="рек. блоки" style="ellipse;whiteSpace=wrap;html=1;" vertex="1" parent="1">
          <mxGeometry x="615" y="410" width="60" height="60" as="geometry" />
        </mxCell>
        <mxCell id="5bv3CfJNdA3xiE76aTlB-36" value="карточка товара" style="rounded=0;whiteSpace=wrap;html=1;" vertex="1" parent="1">
          <mxGeometry x="444" y="790" width="120" height="60" as="geometry" />
        </mxCell>
        <mxCell id="5bv3CfJNdA3xiE76aTlB-42" style="edgeStyle=orthogonalEdgeStyle;rounded=0;orthogonalLoop=1;jettySize=auto;html=1;exitX=0.5;exitY=1;exitDx=0;exitDy=0;" edge="1" parent="1" source="5bv3CfJNdA3xiE76aTlB-37" target="5bv3CfJNdA3xiE76aTlB-36">
          <mxGeometry relative="1" as="geometry" />
        </mxCell>
        <mxCell id="5bv3CfJNdA3xiE76aTlB-37" value="category" style="ellipse;whiteSpace=wrap;html=1;" vertex="1" parent="1">
          <mxGeometry x="420" y="640" width="80" height="80" as="geometry" />
        </mxCell>
        <mxCell id="5bv3CfJNdA3xiE76aTlB-41" style="edgeStyle=orthogonalEdgeStyle;rounded=0;orthogonalLoop=1;jettySize=auto;html=1;exitX=0.5;exitY=1;exitDx=0;exitDy=0;entryX=0.5;entryY=0;entryDx=0;entryDy=0;" edge="1" parent="1" source="5bv3CfJNdA3xiE76aTlB-38" target="5bv3CfJNdA3xiE76aTlB-36">
          <mxGeometry relative="1" as="geometry" />
        </mxCell>
        <mxCell id="5bv3CfJNdA3xiE76aTlB-38" value="catalog" style="ellipse;whiteSpace=wrap;html=1;" vertex="1" parent="1">
          <mxGeometry x="510" y="640" width="80" height="80" as="geometry" />
        </mxCell>
        <mxCell id="5bv3CfJNdA3xiE76aTlB-47" style="edgeStyle=orthogonalEdgeStyle;rounded=0;orthogonalLoop=1;jettySize=auto;html=1;exitX=1;exitY=1;exitDx=0;exitDy=0;entryX=-0.04;entryY=0.581;entryDx=0;entryDy=0;entryPerimeter=0;" edge="1" parent="1" source="5bv3CfJNdA3xiE76aTlB-5" target="5bv3CfJNdA3xiE76aTlB-35">
          <mxGeometry relative="1" as="geometry">
            <Array as="points">
              <mxPoint x="540" y="445" />
            </Array>
          </mxGeometry>
        </mxCell>
      </root>
    </mxGraphModel>
  </diagram>
</mxfile>
